<?xml version="1.0" encoding="UTF-8" standalone="no"?>
<!-- Created with Inkscape (http://www.inkscape.org/) -->

<svg
   width="694"
   height="637.88892"
   viewBox="0 0 183.62083 168.77478"
   version="1.1"
   id="svg5"
   inkscape:version="1.2.1 (9c6d41e410, 2022-07-14)"
   sodipodi:docname="logo.svg"
   xml:space="preserve"
   xmlns:inkscape="http://www.inkscape.org/namespaces/inkscape"
   xmlns:sodipodi="http://sodipodi.sourceforge.net/DTD/sodipodi-0.dtd"
   xmlns="http://www.w3.org/2000/svg"
   xmlns:svg="http://www.w3.org/2000/svg"><sodipodi:namedview
     id="namedview7"
     pagecolor="#ffffff"
     bordercolor="#000000"
     borderopacity="0.25"
     inkscape:showpageshadow="2"
     inkscape:pageopacity="0.0"
     inkscape:pagecheckerboard="0"
     inkscape:deskcolor="#d1d1d1"
     inkscape:document-units="mm"
     showgrid="false"
     inkscape:zoom="0.457453"
     inkscape:cx="649.24703"
     inkscape:cy="-372.71589"
     inkscape:window-width="1649"
     inkscape:window-height="1259"
     inkscape:window-x="3698"
     inkscape:window-y="352"
     inkscape:window-maximized="0"
     inkscape:current-layer="layer1" /><defs
     id="defs2" /><g
     inkscape:label="Layer 1"
     inkscape:groupmode="layer"
     id="layer1"
     transform="translate(27.659052,-299.35411)"><path
       style="fill:#000000;stroke-width:0.264583"
       d="m 59.256578,467.99081 c -0.43657,-0.0491 -2.04391,-0.22022 -3.57188,-0.38016 -6.49925,-0.68031 -15.12758,-2.80862 -21.72175,-5.35801 -5.47109,-2.11519 -11.41776,-5.26507 -17.56887,-9.30601 -3.33456,-2.19062 -5.93362,-3.40241 -8.1790196,-3.81338 -0.86043,-0.15748 -1.60614,-0.32804 -1.65712,-0.37903 -0.051,-0.051 1.54598,-0.9618 3.5487996,-2.02406 2.00283,-1.06225 5.24885,-2.79725 7.21338,-3.85556 1.96453,-1.0583 4.26095,-2.25852 5.10316,-2.66715 l 1.53128,-0.74296 1.03425,1.20997 c 1.34756,1.5765 4.90868,4.56874 7.41256,6.22841 6.67199,4.42244 15.02589,7.49592 24.34166,8.95555 4.32284,0.67731 13.81047,0.82081 18.52084,0.28013 13.57806,-1.55859 24.39532,-6.05535 34.792702,-14.46341 11.6403,-9.41318 19.97373,-22.79302 23.38424,-37.54484 2.25112,-9.73698 2.50681,-22.15816 0.57004,-27.69211 -0.29727,-0.84939 -0.76426,-1.84201 -1.03774,-2.20581 -0.98931,-1.31599 -1.5672,-1.09291 -14.71445,5.68027 -18.928792,9.75169 -31.473952,16.20283 -37.967712,19.52426 -3.27422,1.67469 -10.35844,5.30387 -15.74271,8.06483 -5.38427,2.76096 -11.75411,6.01079 -14.15521,7.22186 -2.40109,1.21106 -7.52078,3.82872 -11.37708,5.81702 -3.8563,1.9883 -11.65489,5.9728 -17.33021,8.85445 -5.67531,2.88165 -12.5809296,6.39523 -15.3458296,7.80795 -2.76489,1.41272 -9.55146,4.86585 -15.08125,7.67361 -5.5297904,2.80777 -12.0187004,6.10878 -14.4197904,7.33559 l -4.36562,2.23056 -0.071,-6.43197 c -0.0391,-3.53759 -0.0206,-6.56341 0.0411,-6.72406 0.0617,-0.16065 2.53437,-1.51796 5.49495,-3.01625 2.96057,-1.49829 6.09724,-3.11251 6.97036,-3.58714 0.87313,-0.47463 5.2189104,-2.74049 9.6572904,-5.03525 4.43839002,-2.29476 9.26042,-4.789 10.71563,-5.54276 8.3573596,-4.32893 11.4177596,-5.90767 16.6687496,-8.59877 3.20146,-1.64073 7.01146,-3.60546 8.46666,-4.36607 1.45521,-0.76061 5.08662,-2.6327 8.06979,-4.16019 19.47185,-9.97028 29.80789,-15.28071 39.6875,-20.39056 6.18464,-3.19876 18.05936,-9.30878 26.388282,-13.57781 8.32892,-4.26902 15.88939,-8.16444 16.80104,-8.65647 0.91166,-0.49203 4.27693,-2.23801 7.47839,-3.87996 3.20146,-1.64195 6.89239,-3.54954 8.20208,-4.2391 1.30969,-0.68956 4.82203,-2.53274 7.80521,-4.09597 2.98318,-1.56322 6.62464,-3.48282 8.09213,-4.26577 1.46749,-0.78295 2.74742,-1.42355 2.84427,-1.42355 0.0969,0 0.1761,2.85052 0.1761,6.33449 v 6.33448 l -1.61772,0.86224 c -2.83115,1.50898 -5.21943,4.35685 -6.36513,7.59002 -0.76344,2.15438 -0.90511,6.38421 -0.38046,11.35879 0.48186,4.56875 0.55984,12.91822 0.1591,17.03518 -1.51575,15.57211 -7.15019,29.73648 -16.6141,41.76605 -2.72273,3.46086 -10.47551,11.13165 -13.67856,13.53391 -12.94252,9.70674 -25.870802,14.77571 -42.068752,16.49446 -3.29799,0.34994 -13.75121,0.49895 -16.13958,0.23006 z m -86.91563,-44.49321 v -6.82644 l 1.25678,-0.60764 c 4.33993,-2.09834 7.73664,-6.85617 9.13041,-12.78915 0.53693,-2.28556 0.57124,-3.01507 0.50723,-10.78574 -0.0917,-11.12601 0.42835,-16.74689 2.20921,-23.88008 5.5922904,-22.39983 21.7153804,-42.2941 42.90662,-52.94247 6.57234,-3.30253 16.04453,-6.1888 24.45732,-7.45238 3.99073,-0.5994 12.5098,-0.9128 17.06563,-0.62782 10.48754,0.65604 20.82455,3.31637 29.2058,7.51642 l 2.252552,1.1288 2.90683,-0.60751 c 1.59875,-0.33414 3.14495,-0.68295 3.43599,-0.77515 0.79469,-0.25175 -1.3344,0.78455 -3.43958,1.67415 -2.67258,1.12937 -6.556082,2.23213 -11.247322,3.19379 -2.28087,0.46755 -5.14573,1.25729 -6.45983,1.78074 l -2.36131,0.94059 -3.02777,-0.72675 c -6.04681,-1.45139 -8.32295,-1.74119 -14.93081,-1.901 -6.94095,-0.16787 -10.2176,0.0739 -15.5058,1.14392 -8.50562,1.72109 -15.67393,4.56988 -23.19632,9.21856 -17.5403696,10.83956 -29.0485496,28.97134 -31.2393396,49.21932 -0.81922,7.57152 -0.23662,14.93155 1.77503,22.42396 l 0.55069,2.05104 5.99014,-3.0828 c 10.3748296,-5.33938 26.8268696,-13.88084 28.4797296,-14.78593 0.87312,-0.47811 5.93328,-3.12854 11.24479,-5.88985 5.31151,-2.7613 13.34823,-6.95905 17.85937,-9.32831 4.51115,-2.36927 11.11912,-5.83982 14.68438,-7.71233 3.56526,-1.87251 8.40374,-4.37462 10.75218,-5.56023 l 4.26988,-2.15567 1.86231,0.33281 c 3.87637,0.69275 6.06647,3.24959 6.826282,7.96938 l 0.14985,0.93082 -3.529732,1.82469 c -5.50207,2.84428 -28.19537,14.71118 -47.84744,25.02064 -19.3447,10.14821 -76.08222,38.89407 -76.76769,38.89407 -0.12433,0 -0.22606,-3.0719 -0.22606,-6.82645 z M 108.20449,368.57156 c -1.5087,-0.71685 -2.73613,-2.34627 -3.4091,-4.52564 -0.22467,-0.7276 -0.77084,-2.53256 -1.2137,-4.01102 -0.87432,-2.91884 -1.97886,-4.69164 -3.853852,-6.18548 -2.42295,-1.93041 -4.36923,-2.50477 -8.32439,-2.45659 -4.46225,0.0544 -7.94227,1.17129 -13.36146,4.28843 -3.98925,2.29463 -7.07963,2.9151 -10.07229,2.02226 -2.76328,-0.8244 -4.61208,-3.37146 -4.61208,-6.35396 0,-2.34352 0.59901,-4.38791 2.24926,-7.67655 1.85733,-3.70131 4.27728,-6.96639 7.65286,-10.32547 5.873,-5.84431 10.40188,-8.1445 16.02704,-8.14004 2.77437,0.002 5.75608,0.89803 8.15957,2.45148 4.377392,2.82924 6.995862,3.48539 15.785222,3.95555 2.7043,0.14466 5.04366,0.40928 5.86648,0.6636 3.04449,0.94099 5.72976,3.53098 6.59075,6.35687 0.59896,1.96586 0.7692,5.82971 0.38198,8.66942 -1.18208,8.6688 -5.71366,16.08225 -12.56408,20.55426 -2.39602,1.56414 -3.26478,1.68094 -5.30221,0.71288 z m 3.68134,-20.78938 c 0.80413,-0.80414 0.70519,-2.30342 -0.20359,-3.08513 -1.01313,-0.87145 -2.13652,-0.81848 -3.10123,0.14623 -1.28707,1.28707 -0.86396,3.25286 0.8141,3.78241 0.5985,0.18887 1.89865,-0.25144 2.49072,-0.84351 z m 5.43124,-1.71988 c 0.96412,-0.49857 1.41068,-1.70628 1.03228,-2.79175 -0.33569,-0.96297 -0.92802,-1.31733 -2.20199,-1.31733 -2.12912,0 -3.05588,2.45349 -1.44028,3.81294 0.92839,0.78119 1.53821,0.85038 2.60999,0.29614 z m -31.612082,-4.88315 c 0.50753,-1.00782 1.01505,-1.88827 1.12781,-1.95657 0.11276,-0.0683 0.9194,0.0997 1.79252,0.37329 0.87313,0.27361 1.76926,0.49922 1.99141,0.50137 0.57802,0.006 1.88071,-2.11085 1.789,-2.90652 -0.0656,-0.56943 -0.343,-0.74719 -1.99344,-1.27759 l -1.9172,-0.61613 1.04871,-2.02507 c 0.57679,-1.11379 0.94807,-2.12571 0.82507,-2.24871 -0.26231,-0.26231 -2.01797,-0.69628 -2.8536,-0.70536 -0.45255,-0.005 -0.7959,0.40286 -1.55413,1.84577 -1.06841,2.03321 -1.15462,2.07272 -3.18074,1.45807 -0.71436,-0.2167 -1.44644,-0.39529 -1.62685,-0.39687 -0.18042,-0.002 -0.76181,0.65046 -1.29198,1.44896 -1.16605,1.75619 -1.05108,1.99122 1.29379,2.6448 0.90702,0.25282 1.73386,0.51027 1.83742,0.57212 0.10357,0.0619 -0.23585,0.88409 -0.75425,1.82721 -0.5184,0.94312 -0.87285,1.89639 -0.78767,2.11838 0.19306,0.50309 1.64335,1.15111 2.60708,1.16489 0.63415,0.009 0.8391,-0.21766 1.64705,-1.82204 z m 23.181312,1.059 c 0.87631,-0.87631 0.94305,-1.30605 0.37378,-2.4069 -0.79787,-1.54292 -2.60078,-1.7975 -3.85407,-0.54422 -0.93019,0.93019 -1.01173,2.02724 -0.22503,3.02738 0.44742,0.56879 0.76779,0.69714 1.74015,0.69714 0.96444,0 1.3393,-0.14752 1.96517,-0.7734 z m 5.54119,-1.74288 c 1.53799,-0.79532 1.76154,-2.37218 0.51327,-3.62044 -0.67233,-0.67234 -0.94373,-0.77767 -1.65364,-0.64176 -1.04956,0.20092 -2.30451,1.52823 -2.30451,2.43738 0,0.82862 1.32367,2.22443 2.10946,2.22443 0.30946,0 0.9104,-0.17982 1.33542,-0.39961 z m 16.30249,7.60825 c 0.33824,-2.87392 0.16745,-6.27285 -0.42342,-8.4266 -0.29619,-1.07962 -0.53853,-2.01286 -0.53853,-2.07387 0,-0.061 1.45852,-0.85214 3.24115,-1.75806 1.78263,-0.90591 7.57252,-3.89076 12.86643,-6.63299 5.29391,-2.74223 9.73106,-4.98587 9.86035,-4.98587 0.1326,0 0.20422,2.85434 0.1643,6.54844 l -0.0708,6.54844 -5.02709,2.51479 c -2.76489,1.38313 -8.45954,4.2103 -12.65478,6.2826 l -7.62769,3.76781 z m 0.0302,-16.13541 -1.52136,-0.0955 v -1.57429 -1.5743 h 1.5875 1.5875 v 1.71979 c 0,0.94589 -0.0298,1.69728 -0.0661,1.66976 -0.0364,-0.0275 -0.75076,-0.093 -1.5875,-0.14549 z m -16.07344,-8.00656 v -2.38125 h 2.38125 2.38125 v 2.38125 2.38125 h -2.38125 -2.38125 z m 22.55644,0.64839 c 0.0746,-0.66204 0.197,-1.26503 0.27197,-1.33999 0.075,-0.075 0.68423,-0.17293 1.35394,-0.2177 l 1.21765,-0.0814 v 1.42139 1.42139 h -1.48962 -1.48962 z m -12.23769,-2.1036 v -3.04271 h 3.04271 3.04271 v 3.04271 3.04271 h -3.04271 -3.04271 z m -5.29167,-4.49792 v -1.4552 h 1.45521 1.45521 v 1.4552 1.45521 h -1.45521 -1.45521 z m 11.64167,-2.65351 v -3.57955 l 3.50573,0.0738 c 3.14917,0.0663 3.50237,0.12092 3.47266,0.53684 -0.0182,0.25467 -0.048,1.83224 -0.0661,3.50573 l -0.0331,3.04271 h -3.43959 -3.43958 z m 9.26042,-5.0194 v -3.04271 h 3.175 3.175 v 3.04271 3.04271 h -3.175 -3.175 z m 7.09931,-9.12872 -0.0879,-1.85268 1.91823,5.3e-4 1.91823,5.3e-4 v 1.85208 1.85208 h -1.83037 -1.83037 l -0.0879,-1.85268 z"
       id="path491" /></g></svg>
